<?xml version="1.0" standalone="no"?>
<!DOCTYPE svg PUBLIC "-//W3C//DTD SVG 20010904//EN"
 "http://www.w3.org/TR/2001/REC-SVG-20010904/DTD/svg10.dtd">
<svg version="1.0" xmlns="http://www.w3.org/2000/svg"
 width="1000.000000pt" height="700.000000pt" viewBox="0 0 1000.000000 700.000000"
 preserveAspectRatio="xMidYMid meet">

<g transform="translate(0.000000,700.000000) scale(0.100000,-0.100000)"
fill="#000000" stroke="none">
<path d="M4495 4423 c-337 -13 -532 -36 -600 -70 -49 -25 -113 -81 -145 -128
-64 -92 -90 -308 -90 -734 0 -270 11 -435 36 -565 32 -166 149 -276 324 -305
292 -49 1558 -53 1895 -6 124 17 176 35 240 83 131 99 161 223 172 707 10 496
-29 776 -123 869 -86 85 -150 109 -339 126 -277 24 -1021 37 -1370 23z m581
-710 c178 -109 323 -202 323 -208 0 -5 -52 -42 -117 -81 -64 -39 -211 -129
-325 -199 -114 -70 -210 -125 -213 -123 -3 4 -7 656 -4 801 0 4 3 7 6 7 4 0
152 -89 330 -197z"/>
</g>
</svg>
